<svg xmlns="http://www.w3.org/2000/svg" width="600" height="400" viewBox="0 0 599.99999 400"><path fill="#fff" fill-rule="evenodd" d="M0 0h600v400H0z"/><g stroke-width=".28957"><path fill="#be1135" d="M330.51 79.084c.637.98 1.469 1.844 1.557 2.829.933 2.88 3.59 4.593 3.912 7.538.11.967 1.39 1.354 2.05 1.795.715.91.227 1.947 1.61 3.313.643.414.142 1.462.268 2.433.634.432 1.328.857 1.98 1.288 5.943 9.317 6.525 20.145-.377 30.177-1.118 1.1-2.17 2.676-2.624 4.209-.544.55-1.698 1.147-2.28 1.688.135.99.778 1.415 1.502 2.334-2.986.785-3.323 3.276-5.61 4.99-.611.036-1.816.157-2.428.21-1.67 1.658-3.44 2.303-5.175 3.463-.533.544-.387 2.005-.333 2.5-2.833 2.237-6.981 3.62-11.31 3.528-.606.06-1.054 1.578-1.658 1.634-3.065.299-6.761.148-9.81.432-1.272-.385-1.987-1.289-3.271-1.673-1.214.123-2.424.227-3.696-.137-1.997-1.311-4.495-1.56-6.444-2.37-1.27-.387-3.59.823-4.917-.031-4.11-3.575-8.163-7.145-10.439-10.889-1.486-2.324-4.047-3.086-4.92-5.467-.103-.983.354-2.498-.916-2.885-2.548-.744-1.495-2.325-1.669-3.793-.762-1.396-.87-2.379-2.25-3.743-.79-1.401.218-3.474-.598-5.378-.042-.486.517-1.043.46-1.522-.95-2.876.57-5.985.309-8.43-.19-1.46.211-3.48.658-5.002 1.516-3.114 2.955-6.702 5.68-9.93-.054-.48-.158-1.453-.205-1.943.551-.555 1.165-.603 1.707-1.16.966-2.554 1.97-4.627 3.572-6.745 2.177-2.673 5.61-4.973 8.4-7.712 1.648-1.639 3.99-2.835 5.53-5.472.579-.535 2.512.274 3.079-.268 1.652-1.641 4.139-1.382 5.868-2.536 1.722-1.14 1.382 1.35 3.15.69 1.225-.117 1.776-.652 2.931-1.272 1.783-.654 3.787.634 5.664.962 1.823-.17 3.698.15 5.702 1.448 2.657 1.72 8.752 1.138 9.726 4.517 1.493 2.318 4.132 4.06 5.616 6.38z"/><g fill="#2e86d0"><path d="M433.692 117.755c-.054-1.522 0-2.45-.602-4.07-.173-1.515 1.036-3.21.517-5.3-.346-.558-1.124-1.228-1.023-1.705 1.023-3.197 1.101-6.142.85-9.638-.25-1.053-.605-1.62-.951-2.192.071-.47.251-1.415.425-2.35.087-2.938-.862-5.113-1.718-7.77-.26-1.028-1.052-1.695-1.22-3.206-.338-.571-1.116-1.246-1.037-1.709.778-4.265-1.298-7.676-1.91-11.736-.939-4.645-5.334-7.577-6.724-12.305.06-.47 1.509-.275 1.947-.171 3.436 3.215 7.244 6.99 8.211 11.635.596 1.617.337 3.026 1.045 4.162 2.905 3.592 3.434 8.132 3.95 12.678-.085.48.873.182 1.201.771-.054.463-.234 1.405.113 1.98 2.239 2.46.863 5.1 1.295 7.658.267 1.053.598 1.603.944 2.177-.088.48-1.203 1.72-1.297 2.183 1.823 2.367 2.6 5.486 2.088 8.319 2.075.969 1.14 3.694 1.626 5.782.348.574.796.67 1.227.738.598-.83 1.185-1.689 1.374-2.64.26-3.88.425-7.273-.277-10.864-.586-1.618-.791-3.125.349-4.359-.866-.196-1.14-1.232-1.47-1.814-1.563-6.237-2.193-13.238-4.045-19.633 0 0 .501-.362.605-.84-.661-5.583-4.902-10.849-6.945-16.487-.306-1.012-1.947-2.217-2.712-3.283 0 0 .05-.488.104-.967 2.192.297 3.844 2.41 5.014 4.045 2.261 3.226 4.885 6.81 5.575 10.41 1.2 3.213 2.984 6.596 3.717 9.74.47 2.09 1.978 3.455 2.99 5.186.56 1.626.283 3.029.427 4.555.605 3.607 1.714 7.11 2.404 10.707.854 2.646 1.223 5.67.346 7.95-1.194 4.164 1.554 8.71 2.669 12.397.623 1.614-.166 3.408-.848 4.735-.072.463.681 1.14.587 1.594-.76 1.81-.148 3.42-.492 5.313-.51.375.586 1.6 0 2.441-.51.394-.936.299-1.484.677-.67 1.327-.066 2.936-.337 4.353-1.385 2.646-.661 6.243-3.254 8.136-.957.284-1.045.763-1.571 1.14.431.101.787.666 1.124 1.232-.51.37-.942.275-1.455.655-.186.948 1.66 2.11 2.004 2.662-.706 3.808-3.517 7.106-3.45 11.57-.154.941-.438 2.351-.586 3.304-.873 2.282-2.523 3.883-3.386 6.147-.142.942-1.974 1.052-2.154 2.01-1.117 1.21-1.005 3.206-1.796 5.005-.592.848-1.905.566-2.941 1.32-1.194 1.697-1.03 3.217-1.79 5.011-1.313 2.19-2.875 4.524-4.166 6.691-1.468 3.127-3.941 6.145-6.612 8.51-.44-.087-1.383.196-1.902.564-1.365 2.658-2.952 4.652-5.884 5.97-.448-.07-1.077 1.971-1.585 2.349-2.026 1.515-3.197 3.215-5.641 4.636-.92.297-1.43.67-2.45-1.036-3.184 5.685-7.474 10.133-12.133 14.011-2.432 1.423-4.89 1.266-6.502 2.862-5.294 5.216-13.7 10.745-14.674 11.523-.4-.11-2.013 2.309-2.013 2.309-1.71.15-.72.298-2.315-.068 0 0-.072 2.678-2.222 3.116-4.56.904-5.76 6.192-6.104 8.384-.182 1.073-.953.329-1.486.776-.495.443-.14 1.093-.684 1.538-1.98 1.22-3.667 3.649-5.319 5.522-.524.436-.854-.225-1.374.238-.52.425-2.927 3.436-3.82 6.066-2.064 4.618-4.325 8.735-7.194 11.997-.69.792 1.628 3.863 1.455 4.915-.668 1.452-1.981 1.69-2.615 3.152-.607 3.62-.77 7.64-1.385 11.475-1.037 3.733.258 6.395.748 9.724.574 2.813-.141 6.435 0 9.153.205 2.2 1.693 4.602 1.446 6.732.086 3.278-.66 2.837.047 5.593-.094 1.601-.63 3.198-.26 4.306-.126 2.143-.464 3.49-.583 5.632-.463.51-1.398 1.529-1.43 2.066-.328 5.38-3.856 10.117-7.547 13.66-2.262 1.46-4.243 3.708-6.867 3.51-1.32-.076-5.686 2.696-7.15 3.05-3.871 1.083-6.951 1.108-10.656.597-4.086-1.124-7.339-2.136-10.158-6.331-1.66-1.864-4.549-1.162-5.634-4.029-.313-1.14-2.67-1.713-3.072-2.32-2.138-1.932-3.275-4.256-4.878-6.646-1.084-2.858-.306-4.823-1.61-7.595-1.333-1.69-1.916-2.9-3.242-4.596-1.785-2.261.4-5.512-.904-7.754-.91-.598-1.81-1.729-2.242-2.835-.856-2.199-.65-5.405-1.97-7.745-.714-2.804-.26-12.94.29-15.673.102-.556-1.467-1.318-1.39-1.876.22-3.939 1.587-7.763 1.272-11.817.402-2.176.22-3.936 2.192-5.796 0 0-.94-.755-.841-1.304 1.149-3.172 1.149-5.61 1.778-8.916.1-.54 1.246-.864 1.34-1.421-.627-2.41-.643-7.307-.227-9.5.214-1.081 3.018-2.718 3.685-3.698.095-.54-.415-1.95.643-3.842.27-.464 1.014-.329 1.559-.77.076-.55-.275-1.2-.176-1.735.268-1.641 3.033-2.835 3.24-3.921 1.081-3.72 2.952-5.27 4.91-8.296.704-1.334.978-2.748 2.134-3.982.51-.369.78-.014.856-.486.086-.472-.157-1.524-.076-1.978 1.097-1.243 2.613-2.377 2.858-3.795.778-1.801 1.436-3.128 2.531-4.366 2.033-1.511 4.058-3.036 5.306-5.194 1.086-1.243 2.35-.947 3.458-2.185 1.587-1.61 2.02-3.975 3.206-5.68 2.788-3.323 5.805-5.593 8.845-7.864 2.514-1.902 5.727-2.655 8.17-4.074 2.52-1.889 4.038-5.493 6.482-6.914 1.507-1.14 3.28-1.225 4.807-2.367 1.522-1.129 2.781-3.305 5.05-3.784 5.036-1.338 1.436.086 6.151-1.808 2.946-1.792 1.711-2.29 4.681-4.092 4.879-2.862 7.415-4.66 7.833-4.557.502-.384 1.007-.76 1.178-1.71 1.172-1.707 7.44-6.092 8.366-6.375.927-.288 2.017.935 3.105-.288.587-.85-.582-1.62 0-2.468 1.601-1.601 3.132-3.78 4.704-4.917.494-.369 1.729.38 2.67.097.511-.374.677-1.332 1.204-1.682.604-.864-.527-2.1.076-2.954.7-1.33 1.376-2.64 2.334-2.923 1.468-.677 3.44-1.704 3.197-2.743.33-1.9 1.1-3.71 3.105-4.744.069-.466.17-.958.25-1.414 1.108-1.235 2.144-1.979 3.29-3.222 1.17-1.702.67-3.786 1.359-5.113 2.248-2.46 4.402-4.438 4.996-7.752-.171-1.506-1.113-3.698-.43-5.023.605-.845 2.505-1.418 2.675-2.351.349-1.907-.602-4.081-.697-6.066.261-1.417 1.8-2.557 1.635-4.063-.175-3.99.094-7.871-.52-11.94 1.368-.183 1.556-1.132 1.723-2.083-.355-3.026-2.075-5.852-2.847-8.993-.085-1.98 1.534-3.59 1.464-5.571-.175-1.516-1.628-3.314-3.2-4.643-1.46-1.799-.516-4.53-1.036-6.621-.425-2.554-2.333-4.454-2.662-7.471-.18-1.525-2.005-1.424-2.601-3.033-.526-2.082-1.03-4.162-1.03-6.628-.265-1.037-1.648-.85-2.428-1.511-1.733-2.842-1.11-8.609-4.93-9.935.344-1.896-1.36-2.273-1.988-3.874 2.246 0 4.32.944 5.607 3.687.362.564 1.644.845 2.085.949 1.128 1.225 1.034 4.161 2.252 4.924 1.547 1.313 3.874.843 4.47 2.45.872 2.642 2.85 4.072 3.827 6.255-.104.46.148 1.497.494 2.073 1.57 1.33 1.727 2.837 2.844 4.07 2.577 3.017 5.192 6.065 3.973 10.22-.753 1.808 1.565 1.32 2.24 2.45 1.753 2.854 1.045 6.638 3.3 9.09-.425 4.83 1.902 9.293 3.377 13.533-2.505 3.89-1.122 10.684.865 14.558 0 0 1.38-.182 1.484-.652.41-2.363 4.72-3.157 4.023-4.29-.857-2.655-2.161-8.193-2.161-10.645.27-3.888.431-7.294-.189-11.366-.337-.573-.683-1.137-1.014-1.704-.526-2.082-1.036-4.173-.614-6.529-.258-1.045-1.043-1.713-1.295-2.734.088-.486.252-1.428.347-1.893.948-.29 2.153.465 2.999.661.802.659.103 1.972.456 2.547 1.376 2.278 3.449 3.229 3.88 5.772-.085.47-.258 1.42-.328 1.89.329 3.027 2.138 5.399 2.577 7.962.18 1.506-1.109 3.68-.504 5.306 1.972 3.867 2.06 8.312 1.752 12.664-.354 1.894 2.034 3.404 1.342 4.731-.657 1.326.2 1.515-.508 2.842-.088.472-1.039.755-1.109 1.225 1.289 2.752-.667 6.905-1.1 9.281-.078.47 1.469.974 1.784-.753.196-1.063 1.987-1.048 2.93-1.331 1.052-.769 1.807-2.56 1.72-4.548m9.285 9.458c.094-2.403 1.218-4.155.787-6.709-.848-2.655-2.813-.024-4.196.173.785 3.119-.51 5.295-1.468 8.02-.591.863-1.014 3.23.353 3.033 2.177.495 4.463-1.576 4.524-4.517m-3.68 12.964c.546-.756.303-2.28-.506-2.948-1.185-.746-2.741.385-3.434 1.714-.69 1.326-.18 3.415 1.65 3.307.426.108 1.696-1.2 2.29-2.073z"/><path d="M413.923 59.445c2.29 1.734 3.188 4.632 5.025 7.006l-.198.951c-3.188 2.743-5.954-1.8-6.817-4.454-1.297-2.75-2.576-5.49-4.917-7.469.079-.48.166-.96.268-1.43-1.138-1.236-2.584-3.019-1.138-3.684.603-.848 1.664.856 2.858 1.59 1.807 2.385 2.154 5.395 4.919 7.49zM426.977 47.3c.036.479-.738 1.295-.841 1.758-1.507-1.382-2.995-2.779-4.313-5.099-.413-.13-1.279-.344-1.605-.933-.423-.119-.319-.573-.209-1.043 1.374-.135 2.444 1.147 3.645 1.945.418.121.953-.241 1.373-.13 1.163.813 1.824 1.969 1.95 3.502z"/></g><path fill="#359a3e" d="M232.253 134.404c.407.328 1.028.854 1.345 1.295.699.456 1.42.51 2.176.18.697.047 1.351 1.902 2.08 1.956 1.023.481 1.69 2.325 2.704 3.215.682.445 1.403 1.106 2.112 1.57.966 1.263 1.612 2.504 2.63 3.367.67.866 1.76.558 2.482.616 1.417.508 1.988 2.545 2.988 3.809.36.031.99 1.281.965 1.682.683.445 1.335 1.279 2.387 1.767.324.44.284 1.216.607 1.648 2.6 4.188 6.015 6.835 8.225 11.39 0 0 .283.825.274 1.22 2.687 2.609 3.856 6.276 6.174 9.246.63 1.234 1.216 3.269 1.799 4.9.685.857 1.369 1.305 2.012 2.17.98 1.655 1.916 3.73 2.136 5.727-.056.785-.587 3.125-1.965 1.821-1.673-1.727-1.49-4.076-3.204-5.427.024-.387-.431-1.424-.778-1.821-.692-.837-1.924-.787-2.199-1.983.072-1.194-1.259-2.159-1.931-2.984-1.713-2.46-4.195-3.361-6.253-5.843-.37-.014-.748-.031-1.117.344-.393.769-1.515 1.908-.47 3.15 1.399.858 2.057 2.473 3.84 3.345 1.043.85 1.304 3.247 1.956 5.259.675.807 1.376 1.632 2.435 2.095 1.055.832.639 2.089 1.612 3.37-.017.398-.41.756-.44 1.154.643 1.25 2.09.958 3.095 2.232.783-.73 1.835-.132 2.474 1.008-1.187 1.106-.873 1.915-1.33 3.093-1.215 1.855 1.54 3.667 3.27 4.6 1.09.097.949 2.078 1.974 2.941.618 1.25 2.417 1.396 3.393 3.071.303.81-.45 1.156-.866 1.902-.11 1.192 1.32 1.705 1.987 2.16.69.455 1.008 1.276 1.307 2.096-1.102.3-3.231-1.178-4.315-1.26-.67-.311-1.971-1.88-3.361-2.182-.49-.108-.81 1.041-1.304.938-.677-.12-1.37-.268-2.084-.385-.76-.143-2.583-2.163-3.377-2.28-.902-.157-1.997 1.5-2.864 1.343-3.263-.558-3.398-.758-4.403-1.199a27.755 27.755 0 0 1-3.44-1.652c-.683-.375-.503-1.31-1.146-1.736-.661-.43-2.075-.425-2.736-.838-2.606-1.581-5.066-5.194-7.29-6.34-1.452-.763-2.686-1.511-4.312-2.296-.798-.502-1.358-1.594-2.35-1.931-3.07-1.03-5.512-2.968-8.992-3.944-6.59-1.868-12.083 1.909-17.44 4.69-.293-.017-.857-.056-1.156.142-1.223 1.043-2.693 1.625-3.905 2.435-1.655 1.32-3.964 1.664-5.821 2.75-.578.344-.64 1.405-1.199 1.753-.897.508-2.443.612-3.3 1.156-.769.49-.888 1.419-1.635 1.976-1.546 1.241-3.055 2.255-5.128 3.238-1.194.598-11.075 2.293-12.728 2.315-2.551.047-4.31 2.143-8.114 2.13-5.78-.032-11.563-.142-16.37-3.717-.998-.886-1.193-3.28-1.886-3.739-2.064-1.351-1.868-4.107-2.442-6.14-.692-.459-2.131-.566-2.037-1.763.787-5.897 3.703-11.225 7.285-15.293.823-1.53 2.678-2.178 2.835-4.148 0 0 3.222-4.508 5.144-6.333.432-.76-.202-2.01.223-2.766 2.945-5.724 8.31-9.66 12.653-14.86 1.165-1.094 2.001-2.616 3.818-2.87.746.05 1.439.113 1.861-.64.866-1.918 2.397-2.988 3.528-3.694 4.195-2.842 7.707-7.141 12.467-7.926.746-.353 1.169-1.092 1.902-1.448.807-.728 2.167.183 2.914-.155 3.547-1.603 6.794-5.043 10.44-5.537.745-.322 1.163-1.093 1.514-1.068 3.235.274 7.064-2.595 10.097.445 2.738-.571 6.83 0 8.568 1.488m24.786 34.672c.003-.398.013-.792.045-1.185-1.43-.873-2.041-3.278-3.83-3.755-.365-.014-1.096.346-1.125.737-.076 2.381.935 4.016 1.934 6.033.422-1.554 1.49-1.5 2.192-.295.36-.364.746-1.135.784-1.536z"/></g></svg>